# xmcd CD database file
#
# Track frame offsets:
#	150
#	52688
#	108341
#	159467
#	216272
#
# Disc length: 3266 seconds
#
# Revision: 0
# Processed by: cddbd v1.5.2PL0 Copyright (c) Steve Scherf et al.
# Submitted via: CDex 1.70beta2
#
DISCID=380cc005
DTITLE=Satoko Fujii - Myra Melford - Under the Warter
DYEAR=2007
DGENRE=Jazz
TTITLE0=Yadokari
TTITLE1=Trace a River
TTITLE2=The Migration of Fish
TTITLE3=Be Melting Snow
TTITLE4=Utsubo
EXTD=YEAR: 2007
EXTT0=
EXTT1=
EXTT2=
EXTT3=
EXTT4=
PLAYORDER=
